# xmcd
#
# Track frame offsets: 
#        212
#        19685
#        38797
#        51910
#        67277
#        90412
#        122847
#        136330
#
# Disc length: 2321 seconds
#
# Revision: 16
# Processed by: cddbd v1.5.2PL0 Copyright (c) Steve Scherf et al.
# Submitted via: ExactAudioCopy v0.99pb5
#
DISCID=6c090f08
DTITLE=Iggy Pop - The Idiot
DYEAR=1977
DGENRE=Rock
TTITLE0=Sister Midnight
TTITLE1=Nightclubbing
TTITLE2=Funtime
TTITLE3=Baby
TTITLE4=China Girl
TTITLE5=Dum Dum Boys
TTITLE6=Tiny Girls
TTITLE7=Mass Production
EXTD=All songs produced by David Bowie\n\nMixed by Tony Visconti\n\n Y
EXTD=EAR: 1977
EXTT0=
EXTT1=Nightclubbing we're nightclubbing\nWe're whats happening\nNightc
EXTT1=lubbing we're nightclubbing\nWe're an ice machine\nWe seepeople 
EXTT1=brand new people\nThey're someting to see\nWhen we'renightclubbi
EXTT1=ng\nBright-whiteclubbing\nOh isn't it wild?\n\nNightclubbing we'
EXTT1=re nightclubbing\nWe're walking through town\nNightclubbing we'r
EXTT1=e nightclubbing\nWe walk like a ghost\nWe learn dances brand new
EXTT1=dances\nLike the nuclear bomb\nWhen we're nightclubbing\nBright
EXTT1=white clubbing\nOh isn't it wild...
EXTT2=
EXTT3=Baby\nDon't you cry\nBaby,\nI'll sing you a lullaby\n\nWe'rewalk
EXTT3=ingdown the\nStreet of chance\nWhere the chance is always\nSlim 
EXTT3=or none\nAnd the intentions unjust\n\nBaby there's nothing to se
EXTT3=e\nI've already been\nDown the street of chance\n\nBaby you're s
EXTT3=o clean\nBabyplease stay clean\nBaby you're so young\nBaby pleas
EXTT3=e stay young\nBaby, don't youcry\nBaby, we'vealready cried
EXTT4=
EXTT5=
EXTT6=
EXTT7=
PLAYORDER=
